<?xml version="1.0" encoding="UTF-8"?><svg xmlns="http://www.w3.org/2000/svg" viewBox="0 0 135.32 98.17"><defs><style>.cls-1{fill:#2d4e75;}.cls-2{fill:#e85a34;}.cls-3{isolation:isolate;}.cls-4{fill:#f59407;}.cls-5{fill:#e87152;}.cls-6{fill:#4089db;}.cls-7{fill:#eda73f;}.cls-8{fill:#fdfffe;}.cls-9{fill:gray;mix-blend-mode:multiply;opacity:.7;}.cls-10{mix-blend-mode:screen;opacity:.3;}.cls-11{fill:#ffce3b;}.cls-12{fill:#5794d9;}.cls-13{fill:#1e344f;}.cls-14{fill:#c4c4c4;}.cls-15{fill:#fefefe;}</style></defs><g class="cls-3"><g id="Layer_2"><g id="layer"><g><path class="cls-9" d="M122.43,4.29c-.44-.19-.89-.37-1.35-.53-.67-.24-1.34-.44-2.01-.61-.62-.29-1.25-.56-1.91-.8-.02,0-.03,0-.05-.02h0c-.62-.23-1.25-.41-1.88-.57-.1-.03-.21-.05-.31-.08-.61-.15-1.21-.27-1.82-.36-.15-.02-.29-.04-.44-.06-.2-.02-.39-.06-.59-.08l-.04,.02c-7.86-.79-15.56,2.85-19.94,9.42l-.04,.02c-.11,.16-.21,.33-.31,.49-.08,.13-.17,.26-.25,.39-.31,.52-.6,1.05-.87,1.6-.05,.11-.1,.22-.16,.33-.27,.58-.53,1.18-.75,1.79h0s-.01,.03-.02,.04c-.89,2.47-1.27,5-1.24,7.48h-.03c0,.25,.02,.48,.03,.71,0,.01,0,.02,0,.03l-5.2-5.11v-3.89h1.52v-4.15h-18.57v4.15h1.53v2.92h-27.13L1.08,56.28h7.12v41.89H114.72V56.28h7.13l-11.32-11.11h.02c4.76,.74,9.53-.16,13.59-2.38,2.63-1.43,4.96-3.42,6.81-5.86,1.29-1.7,2.34-3.62,3.1-5.73,3.84-10.7-1.34-22.44-11.62-26.91Z"/><g><g><polygon class="cls-14" points="110.21 48.32 110.21 46.57 81.21 22.17 81.21 22.17 81.21 22.17 81.13 22.09 81.12 22.1 81.11 22.09 80.83 22.34 42.97 46.57 42.97 47.44 39.55 50.45 39.55 94.09 39.55 97.09 42.97 97.09 71.98 97.09 110.21 97.09 113.63 97.09 113.63 94.09 113.63 51.41 110.21 48.32"/><polygon class="cls-2" points="81.21 16.37 39.55 16.37 79.1 55.2 120.76 55.2 81.21 16.37"/><polygon class="cls-15" points="68.55 48.32 68.55 46.57 39.55 22.17 39.55 22.17 39.55 22.17 39.46 22.09 39.46 22.1 39.45 22.09 39.17 22.34 10.54 46.57 10.54 47.44 7.12 50.45 7.12 89.45 7.12 97.09 10.54 97.09 39.55 97.09 68.55 97.09 71.97 97.09 71.97 94.09 71.97 51.41 68.55 48.32"/><rect class="cls-6" x="54.93" y="65.47" width="7.73" height="24.26"/><rect class="cls-6" x="47.4" y="40.26" width="5.59" height="17.54"/><rect class="cls-2" x="71.97" y="92.16" width="41.66" height="4.92"/><rect class="cls-5" x="7.12" y="92.16" width="64.86" height="4.92"/><polygon class="cls-5" points="39.55 16.37 0 55.2 7.12 55.2 39.55 24.64 71.97 55.2 79.1 55.2 39.55 16.37"/><g><polygon class="cls-14" points="39.56 65.47 25.69 65.47 25.69 89.74 39.56 89.74 53.42 89.74 53.42 65.47 39.56 65.47"/><polygon class="cls-13" points="39.56 67.42 27.65 67.42 27.65 87.78 39.56 87.78 51.47 87.78 51.47 67.42 39.56 67.42"/><g><polygon class="cls-1" points="51.47 87.78 51.47 80.51 44.2 87.78 51.47 87.78"/><polygon class="cls-1" points="27.65 67.42 27.65 77.23 37.45 67.42 27.65 67.42"/><polygon class="cls-1" points="51.47 68.29 31.98 87.78 38.84 87.78 51.47 75.15 51.47 68.29"/></g><rect class="cls-12" x="17.96" y="65.47" width="7.73" height="24.26"/><rect class="cls-12" x="53.4" y="65.47" width="7.73" height="24.26"/><rect class="cls-6" x="18.67" y="67.8" width="6.34" height="1.51"/><rect class="cls-6" x="54.11" y="67.8" width="6.34" height="1.51"/><rect class="cls-6" x="18.67" y="72.31" width="6.34" height="1.51"/><rect class="cls-6" x="54.11" y="72.31" width="6.34" height="1.51"/><rect class="cls-6" x="18.67" y="76.82" width="6.34" height="1.51"/><rect class="cls-6" x="54.11" y="76.82" width="6.34" height="1.51"/><rect class="cls-6" x="18.67" y="81.34" width="6.34" height="1.51"/><rect class="cls-6" x="54.11" y="81.34" width="6.34" height="1.51"/><rect class="cls-6" x="18.67" y="85.86" width="6.34" height="1.5"/><rect class="cls-6" x="54.11" y="85.86" width="6.34" height="1.5"/></g><g><g><polygon class="cls-14" points="39.55 40.26 33.23 40.26 33.23 57.8 39.55 57.8 45.87 57.8 45.87 40.26 39.55 40.26"/><polygon class="cls-13" points="39.55 41.67 34.64 41.67 34.64 56.39 39.55 56.39 44.46 56.39 44.46 41.67 39.55 41.67"/><g><polygon class="cls-1" points="39.55 41.67 38.07 41.67 34.64 45.1 34.64 48.22 41.19 41.67 39.55 41.67"/><polygon class="cls-1" points="44.46 44.05 34.64 53.87 34.64 56.39 39.55 56.39 40.91 56.39 44.46 52.83 44.46 44.05"/></g></g><rect class="cls-12" x="27.63" y="40.26" width="5.59" height="17.54"/><rect class="cls-12" x="45.87" y="40.26" width="5.59" height="17.54"/><rect class="cls-6" x="28.15" y="41.94" width="4.58" height="1.09"/><rect class="cls-6" x="46.39" y="41.94" width="4.58" height="1.09"/><rect class="cls-6" x="28.15" y="45.2" width="4.58" height="1.09"/><rect class="cls-6" x="46.39" y="45.2" width="4.58" height="1.09"/><rect class="cls-6" x="28.15" y="48.47" width="4.58" height="1.09"/><rect class="cls-6" x="46.39" y="48.47" width="4.58" height="1.09"/><rect class="cls-6" x="28.15" y="51.73" width="4.58" height="1.09"/><rect class="cls-6" x="46.39" y="51.73" width="4.58" height="1.09"/><rect class="cls-6" x="28.15" y="55" width="4.58" height="1.09"/><rect class="cls-6" x="46.39" y="55" width="4.58" height="1.09"/></g><g><rect class="cls-6" x="103.72" y="67.21" width="7.08" height="22.21"/><g><g><rect class="cls-8" x="86.18" y="67.21" width="8.01" height="22.21"/><rect class="cls-8" x="94.19" y="67.21" width="8.01" height="22.21"/></g><polygon class="cls-13" points="94.19 68.99 87.97 68.99 87.97 87.63 94.19 87.63 100.41 87.63 100.41 68.99 94.19 68.99"/><g><polygon class="cls-1" points="100.41 68.99 98.3 68.99 87.97 79.33 87.97 84.98 100.41 72.54 100.41 68.99"/><polygon class="cls-1" points="100.41 76.89 89.66 87.63 94.09 87.63 100.41 81.32 100.41 76.89"/></g></g><rect class="cls-12" x="79.1" y="67.21" width="7.08" height="22.21"/><rect class="cls-12" x="102.19" y="67.21" width="7.08" height="22.21"/><rect class="cls-6" x="79.75" y="69.33" width="5.8" height="1.38"/><rect class="cls-6" x="102.85" y="69.33" width="5.8" height="1.38"/><rect class="cls-6" x="79.75" y="73.47" width="5.8" height="1.38"/><rect class="cls-6" x="102.85" y="73.47" width="5.8" height="1.38"/><rect class="cls-6" x="79.75" y="77.6" width="5.8" height="1.38"/><rect class="cls-6" x="102.85" y="77.6" width="5.8" height="1.38"/><rect class="cls-6" x="79.75" y="81.74" width="5.8" height="1.38"/><rect class="cls-6" x="102.85" y="81.74" width="5.8" height="1.38"/><rect class="cls-6" x="79.75" y="85.87" width="5.8" height="1.38"/><rect class="cls-6" x="102.85" y="85.87" width="5.8" height="1.38"/></g><polygon class="cls-14" points="77.85 13.35 73.5 13.35 73.5 22.17 77.85 22.17 82.2 22.17 82.2 13.35 77.85 13.35"/><polygon class="cls-6" points="77.85 9.3 71.98 9.3 71.98 13.45 77.85 13.45 83.72 13.45 83.72 9.3 77.85 9.3"/><polygon class="cls-15" points="71.02 13.35 66.68 13.35 66.68 22.17 71.02 22.17 75.37 22.17 75.37 13.35 71.02 13.35"/><polygon class="cls-12" points="71.02 9.3 65.15 9.3 65.15 13.45 71.02 13.45 76.9 13.45 76.9 9.3 71.02 9.3"/></g><g><g><g><path class="cls-7" d="M92.55,15.63c-4,11.16,1.8,23.45,12.97,27.45L120,2.67c-11.16-4-23.45,1.8-27.45,12.96Z"/><path class="cls-7" d="M132.97,30.12c-.75,2.11-1.81,4.03-3.1,5.73-1.85,2.44-4.19,4.43-6.81,5.86-4.06,2.22-8.83,3.12-13.59,2.38-1.32-.21-2.64-.54-3.95-1.01L120,2.67c.45,.16,.91,.34,1.35,.53,10.27,4.47,15.46,16.21,11.62,26.91Z"/></g><path class="cls-11" d="M116.08,1.26c-11.16-4-23.45,1.8-27.45,12.96-4,11.16,1.8,23.45,12.96,27.45,11.16,4,23.45-1.81,27.45-12.96,4-11.16-1.8-23.45-12.97-27.45Z"/><g><path class="cls-7" d="M92.03,15.45c-3.33,9.28,1.5,19.5,10.78,22.83L114.87,4.66c-9.28-3.33-19.51,1.5-22.83,10.78Z"/><path class="cls-4" d="M114.87,4.66l-12.05,33.61c9.28,3.33,19.5-1.5,22.83-10.78,3.32-9.28-1.5-19.5-10.78-22.83Z"/></g><path class="cls-11" d="M103.73,35.73c-7.86-2.82-11.96-11.51-9.15-19.37,2.82-7.86,11.5-11.97,19.37-9.15,7.86,2.82,11.97,11.51,9.15,19.37-2.82,7.86-11.51,11.97-19.37,9.15Zm10-27.89c-7.52-2.69-15.82,1.23-18.51,8.74-2.69,7.52,1.23,15.82,8.74,18.51,7.51,2.69,15.82-1.23,18.51-8.74,2.69-7.52-1.23-15.82-8.74-18.51Z"/><path class="cls-11" d="M104.27,14.77c1.31-3.58,3.94-3.93,6.73-3.02l.78-2.15,2.39,.87-.79,2.17c1.73,.73,2.96,1.49,4.07,2.33l-1.16,3.2c-1.47-.68-4.11-1.77-5.34-2.22-1.45-.55-2.2-.69-2.7,.69l-.22,.62c-.39,1.08-.1,1.68,1.22,2.16l2.01,.73c3.72,1.35,3.39,4.67,2.65,6.68l-.38,1.05c-1.55,4.25-4.44,4.3-6.92,3.4l-.75,2.05-2.38-.87,.76-2.08c-2.02-.81-2.68-1.26-4.12-2.36l1.16-3.17c.97,.44,3.37,1.5,5.7,2.35,1.06,.39,2,.45,2.39-.63l.27-.73c.32-.9,.24-1.54-.99-1.99l-1.94-.7c-4.48-1.63-3.49-5.43-2.99-6.81l.56-1.56Z"/></g><g class="cls-10"><path class="cls-11" d="M111,.11l-20.02,9.45c-.94,1.41-1.73,2.96-2.33,4.62L116.04,1.24c-1.67-.59-3.36-.97-5.04-1.13Z"/><path class="cls-11" d="M122.67,5.04l-35.3,16.67c.05,3.98,1.21,7.84,3.29,11.16l38.55-18.21c-1.25-3.71-3.49-7.06-6.53-9.63Z"/></g></g></g></g></g></g></g></svg>