<?xml version="1.0" encoding="UTF-8"?><svg xmlns="http://www.w3.org/2000/svg" viewBox="0 0 117.03 118.16"><defs><style>.cls-1{fill:#82de9a;}.cls-2{fill:#75c78a;}.cls-3{fill:#1a222b;}.cls-4{mix-blend-mode:screen;opacity:.4;}.cls-5{fill:#fff;}.cls-6{fill:#fafafa;}.cls-7{fill:#153152;}.cls-8{isolation:isolate;}.cls-9{fill:#e87152;}.cls-10{fill:#6cb880;}.cls-11{fill:#e1e1e1;}.cls-12{fill:#447a52;}.cls-13{fill:#afafaf;}.cls-14{fill:#ffce3b;}.cls-15{fill:#5794d9;}.cls-16{fill:#0e2036;}.cls-17{fill:#c4c4c4;}</style></defs><g class="cls-8"><g id="Layer_2"><g id="layer"><g><g><g><polygon class="cls-17" points="86.43 44.04 84.95 44.68 65.96 .61 67.42 0 86.43 44.04"/><g><rect class="cls-1" x="51.16" y="3.66" width="25.33" height="47.99" transform="translate(-5.73 27.53) rotate(-23.32)"/><path class="cls-12" d="M49.65,13.4l13.53-5.83,14.81,34.35-13.53,5.83L49.65,13.4h0Zm-4.65-1.84l17.61,40.84,20.03-8.64L65.03,2.92l-20.03,8.64h0Z"/><path class="cls-12" d="M59.67,45.6c3.76-1.62,8.12,.11,9.74,3.86l-6.81,2.94-2.93-6.8Z"/><path class="cls-12" d="M47.93,18.36c3.76-1.62,5.49-5.98,3.88-9.73l-6.81,2.94,2.93,6.8Z"/><path class="cls-12" d="M79.71,36.97c-3.75,1.62-5.48,5.97-3.87,9.72l6.79-2.93-2.93-6.79Z"/><path class="cls-12" d="M67.96,9.72c-3.76,1.62-8.11-.12-9.73-3.87l6.79-2.93,2.93,6.8Z"/><path class="cls-12" d="M67.84,36.55c-1.77,.77-2.6,2.83-1.83,4.6,.77,1.78,2.83,2.6,4.61,1.83,1.78-.77,2.59-2.83,1.83-4.6-.77-1.78-2.83-2.59-4.6-1.83Z"/><path class="cls-12" d="M61.23,21.64c-3.32,1.43-4.84,5.28-3.41,8.59,1.43,3.32,5.27,4.84,8.59,3.42,3.32-1.43,4.85-5.28,3.42-8.6-1.43-3.32-5.28-4.84-8.59-3.41Z"/><path class="cls-12" d="M57.83,13.34c-1.77,.76-2.59,2.83-1.83,4.61,.76,1.78,2.83,2.59,4.6,1.83,1.77-.76,2.59-2.83,1.83-4.6-.77-1.78-2.83-2.6-4.6-1.83Z"/><path class="cls-2" d="M63.08,30.96c-1.47,.63-2.34-.06-2.86-1.18l-.88,.38-.42-.98,.89-.38c-.27-.74-.4-1.34-.46-1.91l1.32-.57c.2,.65,.63,1.77,.85,2.27,.25,.6,.43,.87,1,.62l.25-.1c.44-.19,.55-.46,.31-1l-.36-.82c-.66-1.52,.45-2.38,1.27-2.73l.43-.19c1.75-.75,2.59,.12,3.02,1.14l.85-.37,.42,.98-.86,.37c.34,.85,.39,1.18,.47,1.94l-1.3,.56c-.15-.42-.51-1.46-.92-2.42-.19-.43-.44-.74-.88-.54l-.3,.13c-.37,.16-.54,.37-.32,.88l.34,.79c.79,1.84-.65,2.62-1.22,2.86l-.63,.27Z"/></g></g><g><polygon class="cls-10" points="76.43 44.76 75.43 46.02 37.79 16.26 38.79 15.02 76.43 44.76"/><g><rect class="cls-1" x="36.09" y="17.08" width="25.33" height="47.98" transform="translate(-13.7 53.84) rotate(-51.67)"/><path class="cls-12" d="M29.51,35.25l9.14-11.55,29.34,23.2-9.14,11.56-29.34-23.2h0Zm-4.97,.59l34.88,27.58,13.53-17.11L38.07,18.73l-13.53,17.11h0Z"/><path class="cls-12" d="M53.62,58.83c2.54-3.21,7.2-3.76,10.4-1.23l-4.6,5.82-5.8-4.59Z"/><path class="cls-12" d="M30.35,40.43c2.54-3.21,2-7.87-1.21-10.41l-4.6,5.82,5.81,4.59Z"/><path class="cls-12" d="M67.15,41.72c-2.54,3.21-1.99,7.86,1.21,10.39l4.59-5.81-5.8-4.59Z"/><path class="cls-12" d="M43.88,23.32c-2.53,3.21-7.19,3.75-10.4,1.21l4.59-5.8,5.81,4.59Z"/><path class="cls-12" d="M56.51,46.99c-1.2,1.52-.94,3.72,.58,4.93,1.52,1.2,3.73,.94,4.92-.58,1.2-1.51,.94-3.72-.58-4.92-1.52-1.2-3.72-.94-4.92,.57Z"/><path class="cls-12" d="M43.62,37.01c-2.24,2.83-1.76,6.94,1.07,9.18,2.83,2.24,6.94,1.76,9.18-1.07,2.24-2.83,1.76-6.94-1.07-9.18-2.83-2.24-6.94-1.76-9.18,1.07Z"/><path class="cls-12" d="M36.69,31.32c-1.2,1.51-.94,3.72,.57,4.92,1.52,1.2,3.73,.94,4.92-.57,1.2-1.52,.94-3.72-.58-4.92-1.52-1.2-3.72-.94-4.92,.57Z"/><path class="cls-2" d="M49.68,44.33c-.99,1.26-2.09,1.06-3.07,.32l-.59,.75-.83-.66,.6-.76c-.59-.53-.99-.99-1.32-1.46l.89-1.13c.49,.48,1.4,1.26,1.83,1.6,.51,.41,.79,.56,1.17,.08l.17-.22c.3-.38,.26-.66-.2-1.02l-.7-.56c-1.3-1.03-.73-2.3-.17-3l.28-.37c1.18-1.49,2.33-1.12,3.2-.43l.57-.73,.83,.66-.58,.73c.7,.58,.9,.85,1.32,1.48l-.88,1.11c-.32-.3-1.14-1.05-1.96-1.69-.37-.29-.74-.44-1.04-.06l-.2,.25c-.25,.32-.3,.58,.13,.93l.68,.53c1.57,1.24,.67,2.62,.29,3.1l-.43,.54Z"/></g></g></g><g><path class="cls-3" d="M112.48,113.1c0,2.78-2.28,5.06-5.06,5.06H5.06c-2.79,0-5.06-2.28-5.06-5.06V53.82c0-2.77,2.27-5.05,5.06-5.05H107.42c2.78,0,5.06,2.28,5.06,5.05v59.27Z"/><path class="cls-16" d="M111.98,48.78H9.61c-2.78,0-5.06,2.28-5.06,5.05v59.27c0,2.78,2.27,5.06,5.06,5.06H111.98c2.78,0,5.05-2.28,5.05-5.06V53.82c0-2.77-2.28-5.05-5.05-5.05Z"/><path class="cls-7" d="M107.42,48.78H5.06c-2.79,0-5.06,2.28-5.06,5.05v59.27c0,2.78,2.27,5.06,5.06,5.06H107.42c2.78,0,5.06-2.28,5.06-5.06V53.82c0-2.77-2.28-5.05-5.06-5.05Z"/><path class="cls-6" d="M105.39,53.29H7.1c-1.67,0-3.03,1.38-3.03,3.04v54.27c0,1.67,1.37,3.04,3.03,3.04H105.39c1.66,0,3.03-1.36,3.03-3.04V56.33c0-1.66-1.37-3.04-3.03-3.04Z"/></g><g id="_"><path class="cls-15" d="M84.51,90.8l-.23,.02,.46,20.53c2.78-.07,5.6-.69,8.28-1.95,1.39-.65,2.67-1.45,3.83-2.35,3.22-2.49,5.55-5.83,6.83-9.55l-19.18-6.71Z"/><path class="cls-12" d="M99.42,76.94c-5.91-6.45-15.54-8.62-23.88-4.7-1.7,.8-3.24,1.81-4.6,2.97l13.34,15.61h.13l15.2-13.65c-.07-.07-.13-.15-.19-.23Z"/><path class="cls-9" d="M104.75,89.1c-.2-2.37-.81-4.74-1.88-7.02-.86-1.83-1.97-3.47-3.25-4.91l-15.2,13.64h.1l19.18,6.7c.92-2.67,1.3-5.53,1.06-8.41Z"/><path class="cls-14" d="M84.28,90.82l-13.34-15.61c-4.72,4.03-7.33,9.98-7.19,16.08,.06,2.78,.69,5.59,1.95,8.27,3.57,7.59,11.17,11.96,19.04,11.79l-.46-20.53Z"/></g><g><path class="cls-15" d="M19.77,56.54h5.21c1.63,0,3.61,.4,3.61,3.79,0,3.76-2.14,4.06-3.61,3.95-.64-.05-2.03-.27-2.11-.32v4.28h-3.1v-11.7Zm4.89,5.12c.61,0,.82-.46,.82-1.28s-.26-1.2-.82-1.2h-1.79v2.48h1.79Z"/><path class="cls-15" d="M29.7,56.54h3.1v8.09c0,.85,.53,.83,.99,.83h3.29v2.78h-4.73c-1.45,0-2.65-.69-2.65-2.49v-9.21Z"/><path class="cls-15" d="M41.44,56.54h3.66l3.55,11.7h-3.18l-.69-2.05h-3.15l-.67,2.05h-3.18l3.66-11.7Zm2.72,7.02l-.85-3.13-.98,3.13h1.82Z"/><path class="cls-15" d="M49.47,56.54h3.13l3.34,5.98v-5.98h3.1v11.7h-3.1l-3.36-5.82v5.82h-3.12v-11.7Z"/><path class="cls-15" d="M60.29,56.54h3.13l3.34,5.98v-5.98h3.1v11.7h-3.1l-3.36-5.82v5.82h-3.12v-11.7Z"/><path class="cls-15" d="M71.11,56.54h3.1v11.7h-3.1v-11.7Z"/><path class="cls-15" d="M79.12,56.41c2.54,0,2.7,0,4.86,.59v2.38c-.1,0-1.87-.35-3.9-.35-1.49,0-1.74,.72-1.74,3.33s.1,3.12,1.5,3.12c.99,0,1.15-.74,1.15-.74v-1.2h-.78v-1.92c.72-.38,1.74-.4,2.8-.4,.33,0,.7,.02,1.09,.05v6.97h-2.19l-.88-.78c-.45,.59-.7,.78-1.98,.86-3.31,.21-3.8-2.7-3.8-6,0-3.56,.7-5.92,3.89-5.92Z"/></g><rect class="cls-11" x="7.17" y="70.71" width="53.47" height="39.08"/><g><g><rect class="cls-14" x="9.31" y="73.26" width="8" height="7.04"/><rect class="cls-13" x="19.87" y="73.26" width="38.64" height="7.04"/></g><g><rect class="cls-15" x="9.31" y="82.25" width="8" height="7.04"/><rect class="cls-13" x="19.87" y="82.25" width="38.64" height="7.04"/></g><g><rect class="cls-12" x="9.31" y="91.23" width="8" height="7.04"/><rect class="cls-13" x="19.87" y="91.23" width="38.64" height="7.04"/></g><g><rect class="cls-9" x="9.31" y="100.22" width="8" height="7.04"/><rect class="cls-13" x="19.87" y="100.22" width="38.64" height="7.04"/></g></g><g class="cls-4"><polygon class="cls-5" points="25.44 53.29 4.06 74.67 4.06 92.44 43.21 53.29 25.44 53.29"/><path class="cls-5" d="M67.16,53.29L6.84,113.61c.08,0,.17,.03,.25,.03h31.91l60.34-60.35h-32.19Z"/></g></g></g></g></g></svg>