<?xml version="1.0" encoding="UTF-8"?><svg xmlns="http://www.w3.org/2000/svg" viewBox="0 0 121.53 105.75"><defs><style>.cls-1{fill:#82de9a;}.cls-2{fill:#75c78a;}.cls-3{fill:#fff;}.cls-4{fill:#91cce1;}.cls-5{fill:#dbdbdb;}.cls-6{fill:#f1f1f1;opacity:.34;}.cls-7{fill:#153152;}.cls-8{isolation:isolate;}.cls-9{fill:#cfcfcf;}.cls-10{fill:#f59407;}.cls-11{fill:#6cb880;}.cls-12{fill:#e1e1e1;}.cls-13{fill:#193a61;}.cls-14{fill:#eda73f;}.cls-15{fill:#447a52;}.cls-16{fill:#1b1f19;}.cls-17{fill:#ebebeb;}.cls-18{fill:gray;mix-blend-mode:multiply;opacity:.7;}.cls-19{opacity:.3;}.cls-19,.cls-20{mix-blend-mode:screen;}.cls-21{fill:#ffce3b;}.cls-22{fill:#5794d9;}.cls-20{opacity:.5;}.cls-23{fill:#0e2036;}.cls-24{fill:#c4c4c4;}.cls-25{fill:#fefefe;}</style></defs><g class="cls-8"><g id="Layer_2"><g id="layer"><g><path class="cls-18" d="M121.09,77.27l-13.96-17.8s0-.02-.01-.02c-.29-.38-.69-.57-.88-.44h-.01l-.07-.08c-.17-.23-.42-.34-.54-.25l-.09,.07-.8-1.01-.3-.38,.47-.35c.15-.11,.14-.38-.01-.59l-.58-.77-1.05-1.41c-.16-.21-.41-.29-.57-.18l-.55,.41-1.05-1.33-.78-.99c.73-.6,1.42-1.24,2.06-1.92,1.58-1.7,2.87-3.69,3.78-5.87,.23-.56,.44-1.13,.62-1.71,.21-.69,.39-1.38,.53-2.1,.09-.48,.17-.96,.23-1.44,.03-.22,.05-.44,.07-.67,.02-.17,.03-.35,.04-.52,.01-.19,.02-.39,.03-.58,.01-.42,.01-.84,0-1.25-.05-1.66-.3-3.27-.74-4.81-.04-.15-.08-.29-.13-.44-.13-.42-.27-.83-.43-1.24-.38-.99-.84-1.95-1.36-2.86-1.51-2.61-3.61-4.85-6.11-6.54-1.25-.84-2.6-1.55-4.04-2.1-2.01-.76-4.17-1.21-6.43-1.28-3.03-.1-5.92,.49-8.53,1.62-1.61,.7-3.1,1.59-4.45,2.66-.16,.13-.31,.27-.47,.4V8.26H42.33c-.27-3.83-3.44-6.87-7.36-6.87-.17,0-.33,.04-.5,.05-.17-.01-.33-.05-.5-.05-3.91,0-7.07,3.04-7.35,6.87H1.39V93.83H23.36c-.45,1.64-.46,3.39,.02,5.08v.02s.03,.1,.05,.14c.07,.24,.16,.47,.25,.7,.04,.1,.07,.2,.11,.29,.13,.3,.27,.59,.43,.88,.01,.03,.02,.05,.04,.08h0v.02c.58,1,1.32,1.84,2.15,2.54h0s.08,.07,.12,.1c.3,.24,.6,.46,.92,.66h.02c.33,.22,.68,.4,1.03,.56,.09,.04,.17,.07,.26,.11,.3,.13,.6,.24,.92,.33,.07,.02,.13,.04,.2,.06,.37,.1,.74,.18,1.12,.24,.03,0,.05,.01,.08,.02h0c2.02,.29,4.14-.06,6.05-1.15,.26-.15,.52-.32,.76-.49,.28-.13,.55-.26,.82-.42,.53-.3,1.01-.65,1.46-1.03,1.6-1.38,2.66-3.23,3.07-5.21,.24-1.15,.25-2.35,.05-3.53h14.95l6.58,4.3v4.14c0,1.42,1.15,2.58,2.58,2.58h23.62c1.43,0,2.58-1.15,2.58-2.58v-27.48c0-1.42-1.15-2.58-2.58-2.58h-.44v-.99c0-1.2-.95-2.18-2.13-2.23v-7.64l-.89-.95-.35,.37-.35-.37-.86,.92-.86-.92-.35,.37-.35-.37-.53,.57-3.07-5.64c.11,.04,.22,.09,.33,.13,0,0,.01,0,.02,0,.07,.02,.14,.05,.21,.07,.07,.03,.14,.05,.21,.07,.15,.05,.29,.09,.43,.14,.03,0,.06,.02,.08,.03,.08,.02,.16,.04,.24,.06,.5,.43,1.04,.81,1.64,1.14,.27,.15,.55,.28,.83,.4,.25,.17,.51,.33,.78,.48,.53,.29,1.08,.53,1.64,.71,2.01,.65,4.14,.58,6.05-.1,1.24-.44,2.39-1.14,3.35-2.07,.37-.35,.7-.74,1.01-1.16l1.02,1.46,.18,.25-.56,.41c-.15,.11-.14,.38,.02,.59l1.62,2.18c.16,.21,.41,.29,.56,.18l.47-.35h0l.08,.12,.19,.28,.74,1.06-.08,.06c-.13,.1-.09,.36,.08,.6l.07,.09h-.01c-.19,.16-.1,.6,.18,.99l.95,1.38,12.26,16.98c.4,.55,.88,.85,1.1,.69l1.66-1.23,1.93-1.45,1.33-1c.23-.16,.09-.73-.32-1.25ZM36.55,6.53c0,.67-.28,1.27-.71,1.72h-2.71c-.43-.46-.71-1.05-.71-1.72,0-1.25,.88-2.28,2.07-2.52,1.18,.23,2.07,1.27,2.07,2.52ZM101.95,28.34h0c.05,.08,.09,.16,.14,.24,.18,.32,.35,.65,.51,.98,.54,1.13,.96,2.34,1.24,3.59,.29,1.31,.42,2.67,.37,4.07-.05,1.64-.34,3.21-.83,4.68-.11,.33-.23,.65-.36,.96h0c-.03,.09-.07,.19-.11,.28h0c-.06,.14-.12,.27-.18,.4-.15,.32-.31,.64-.48,.95h0c.37-4.59-1.77-9.2-5.85-11.8-.24-.15-.49-.3-.74-.44-.36-.2-.73-.37-1.1-.53-.34-.23-.7-.46-1.07-.66h-.03s-.05-.04-.08-.05c-.41-.22-.82-.41-1.24-.58-.12-.05-.24-.09-.35-.13-.34-.13-.68-.24-1.03-.34-.06-.02-.11-.04-.16-.05h-.02c-4.54-1.19-9.4,.23-12.6,3.67,.15-3.02,1.32-5.99,3.47-8.14,2.13-2.12,4.96-3.4,7.84-4.24-.55,.16-1.68-.22-2.3-.22-.82,0-1.64,.05-2.45,.17-1.67,.26-3.3,.8-4.8,1.59-2.04,1.08-3.57,2.66-4.78,4.52v-.89c.06-.07,.12-.15,.18-.22,0,0,.01-.02,.02-.03,.27-.32,.55-.63,.84-.93,3.11-3.18,7.5-5.1,12.3-4.94,.14,0,.28,.01,.42,.01h0c5.67,.33,10.53,3.5,13.23,8.08Zm.54-.2c.04,.07,.08,.14,.12,.21,.04,.07,.07,.14,.11,.2,.05,.08,.09,.16,.13,.25-.69-1.3-1.55-2.5-2.54-3.59,.09,.09,.19,.17,.27,.27,.72,.82,1.35,1.71,1.9,2.65Zm-2.22-2.97c-.98-1.06-2.09-2.01-3.3-2.81,1.22,.79,2.32,1.75,3.3,2.81Z"/><g><g><rect class="cls-23" x="4.19" y="6.87" width="69.38" height="85.57"/><rect class="cls-7" y="6.87" width="69.38" height="85.57"/><rect class="cls-24" x="5" y="11.06" width="61" height="77.19"/><rect class="cls-25" x="2.77" y="11.06" width="61" height="77.19"/><g><path class="cls-14" d="M46.54,7.54h-5.54v-.15c0-4.08-3.31-7.4-7.41-7.4s-7.4,3.31-7.4,7.4v.15h-5.19c-3.09,0-5.59,2.44-5.74,5.5H52.28c-.14-3.06-2.65-5.5-5.74-5.5Zm-15.51-2.4c0-1.42,1.14-2.57,2.57-2.57s2.57,1.15,2.57,2.57c0,1.1-.7,2.04-1.68,2.4h-1.78c-.98-.36-1.68-1.3-1.68-2.4Z"/><path class="cls-21" d="M45.54,7.54h-5.54v-.15c0-4.08-3.31-7.4-7.41-7.4s-7.4,3.31-7.4,7.4v.15h-5.19c-3.1,0-5.6,2.44-5.74,5.5H51.28c-.14-3.06-2.65-5.5-5.74-5.5Zm-15.51-2.4c0-1.42,1.14-2.57,2.57-2.57s2.57,1.15,2.57,2.57c0,1.1-.7,2.04-1.68,2.4h-1.78c-.98-.36-1.67-1.3-1.67-2.4Z"/></g><g><rect class="cls-12" x="6.59" y="32.35" width="2.73" height="51.85"/><rect class="cls-12" x="22.41" y="32.27" width="2.72" height="51.21"/><rect class="cls-12" x="40.68" y="32.31" width="2.73" height="51.17"/><rect class="cls-12" x="57.28" y="32.31" width="2.73" height="51.17"/><rect class="cls-12" x="57.28" y="44.73" width="2.73" height="38.65"/><rect class="cls-12" x="6.59" y="29.51" width="53.41" height="2.73"/><rect class="cls-24" x="11.2" y="48.93" width="9.17" height="5.68"/><rect class="cls-24" x="28.42" y="35.38" width="9.17" height="5.68"/><rect class="cls-24" x="28.19" y="48.93" width="9.17" height="5.68"/><rect class="cls-24" x="28.19" y="61.21" width="9.17" height="5.68"/><rect class="cls-12" x="6.59" y="56.27" width="53.41" height="2.73"/><rect class="cls-12" x="6.59" y="44.17" width="53.41" height="2.73"/><rect class="cls-12" x="6.59" y="68.88" width="53.41" height="2.73"/><rect class="cls-12" x="7.7" y="81.48" width="52.31" height="2.73"/></g></g><g><g><polygon class="cls-11" points="91.99 77.04 90.64 77.77 68.81 37.6 70.15 36.9 91.99 77.04"/><g><rect class="cls-1" x="57.06" y="40.59" width="24.13" height="45.71" transform="translate(-21.9 40.7) rotate(-28.52)"/><path class="cls-15" d="M54.45,51.14l12.34-6.7,17.01,31.31-12.33,6.7-17.02-31.31h0Zm-4.57-1.35l20.23,37.22,18.26-9.93-20.23-37.22-18.26,9.93h0Z"/><path class="cls-15" d="M66.74,80.83c3.43-1.86,7.71-.6,9.57,2.82l-6.21,3.37-3.37-6.19Z"/><path class="cls-15" d="M53.24,55.99c3.43-1.86,4.7-6.15,2.84-9.57l-6.21,3.37,3.37,6.2Z"/><path class="cls-15" d="M85,70.91c-3.42,1.86-4.69,6.14-2.83,9.56l6.19-3.37-3.36-6.19Z"/><path class="cls-15" d="M71.5,46.07c-3.42,1.86-7.7,.59-9.56-2.83l6.2-3.37,3.37,6.2Z"/><path class="cls-15" d="M73.7,71.54c-1.62,.88-2.22,2.91-1.34,4.53,.88,1.62,2.91,2.22,4.53,1.34,1.62-.88,2.22-2.9,1.34-4.53-.88-1.62-2.91-2.22-4.52-1.34Z"/><path class="cls-15" d="M66.15,57.97c-3.02,1.64-4.14,5.42-2.5,8.44,1.65,3.02,5.42,4.14,8.45,2.5,3.02-1.64,4.14-5.43,2.5-8.45-1.64-3.02-5.43-4.14-8.45-2.49Z"/><path class="cls-15" d="M62.21,50.38c-1.62,.88-2.22,2.91-1.33,4.53,.87,1.62,2.91,2.22,4.52,1.34,1.62-.88,2.21-2.91,1.34-4.52-.88-1.62-2.91-2.22-4.53-1.34Z"/><path class="cls-2" d="M68.71,66.65c-1.34,.73-2.22,.14-2.81-.87l-.8,.44-.48-.89,.81-.44c-.32-.68-.49-1.24-.61-1.78l1.2-.65c.25,.59,.75,1.62,1,2.08,.29,.55,.48,.79,1,.5l.23-.12c.4-.22,.48-.48,.21-.97l-.41-.75c-.75-1.39,.22-2.29,.97-2.7l.39-.21c1.59-.87,2.46-.11,2.97,.82l.78-.42,.48,.89-.78,.42c.39,.78,.47,1.08,.61,1.8l-1.19,.64c-.17-.39-.61-1.35-1.08-2.21-.21-.4-.48-.66-.89-.44l-.27,.15c-.33,.18-.48,.4-.23,.86l.39,.72c.91,1.67-.39,2.54-.91,2.82l-.58,.31Z"/></g></g><g><polygon class="cls-11" points="82.56 78.59 81.72 79.87 43.44 54.88 44.28 53.62 82.56 78.59"/><g><rect class="cls-1" x="43.92" y="54.62" width="24.13" height="45.71" transform="translate(-39.49 82.01) rotate(-56.86)"/><path class="cls-15" d="M37.23,73.61l7.67-11.75,29.84,19.48-7.68,11.76-29.84-19.48h0Zm-4.66,.99l35.47,23.15,11.36-17.4-35.48-23.16-11.36,17.4h0Z"/><path class="cls-15" d="M62.14,93.91c2.13-3.27,6.5-4.19,9.76-2.07l-3.86,5.91-5.9-3.85Z"/><path class="cls-15" d="M38.47,78.46c2.13-3.26,1.22-7.64-2.05-9.77l-3.86,5.92,5.91,3.85Z"/><path class="cls-15" d="M73.5,76.5c-2.13,3.26-1.21,7.63,2.05,9.76l3.85-5.9-5.9-3.85Z"/><path class="cls-15" d="M49.83,61.06c-2.13,3.26-6.5,4.18-9.76,2.05l3.85-5.9,5.91,3.85Z"/><path class="cls-15" d="M63.86,82.42c-1.01,1.54-.57,3.61,.97,4.62,1.55,1.01,3.62,.57,4.62-.97,1.01-1.54,.57-3.61-.97-4.61-1.54-1.01-3.61-.57-4.62,.96Z"/><path class="cls-15" d="M50.77,74.07c-1.88,2.88-1.07,6.74,1.81,8.62,2.88,1.88,6.74,1.07,8.62-1.81,1.88-2.88,1.07-6.74-1.81-8.62-2.88-1.88-6.74-1.06-8.61,1.81Z"/><path class="cls-15" d="M43.7,69.27c-1.01,1.54-.57,3.61,.97,4.62,1.54,1.01,3.62,.57,4.62-.97,1-1.54,.57-3.61-.97-4.62-1.54-1.01-3.61-.57-4.62,.97Z"/><path class="cls-2" d="M57.14,80.49c-.83,1.28-1.89,1.18-2.89,.57l-.5,.76-.85-.55,.51-.77c-.61-.45-1.03-.86-1.38-1.28l.75-1.14c.5,.41,1.43,1.07,1.87,1.36,.52,.34,.8,.46,1.12-.03l.14-.22c.25-.38,.19-.65-.27-.95l-.72-.47c-1.32-.86-.89-2.12-.43-2.84l.24-.37c.99-1.52,2.12-1.27,3-.69l.48-.74,.85,.56-.48,.74c.71,.5,.93,.73,1.38,1.29l-.74,1.13c-.33-.26-1.17-.89-2-1.43-.38-.24-.74-.36-.99,.03l-.17,.26c-.21,.32-.23,.58,.21,.86l.69,.45c1.6,1.04,.86,2.43,.55,2.92l-.36,.55Z"/></g></g></g><g><g><g><path class="cls-14" d="M80.45,43.68c-2.5,4.56-.83,10.28,3.73,12.78l9.05-16.51c-4.56-2.5-10.28-.83-12.78,3.73Z"/><path class="cls-14" d="M96.97,52.73c-.48,.86-1.06,1.62-1.74,2.27-.97,.93-2.12,1.63-3.35,2.07-1.91,.68-4.04,.75-6.05,.1-.56-.18-1.11-.42-1.64-.71l9.05-16.51c.19,.1,.37,.21,.55,.32,4.14,2.64,5.58,8.08,3.19,12.46Z"/></g><path class="cls-21" d="M91.63,39.07c-4.56-2.5-10.28-.83-12.78,3.73-2.5,4.56-.83,10.28,3.73,12.78,4.56,2.5,10.29,.83,12.78-3.73,2.5-4.56,.83-10.28-3.74-12.78Z"/><g><path class="cls-14" d="M80.24,43.56c-2.08,3.79-.69,8.55,3.1,10.63l7.53-13.73c-3.79-2.08-8.55-.69-10.63,3.11Z"/><path class="cls-10" d="M90.87,40.46l-7.53,13.73c3.79,2.08,8.55,.69,10.63-3.1,2.08-3.79,.69-8.55-3.1-10.63Z"/></g><path class="cls-21" d="M83.91,53.15c-3.22-1.76-4.4-5.81-2.64-9.02,1.76-3.21,5.81-4.4,9.02-2.64,3.21,1.76,4.4,5.81,2.64,9.02-1.76,3.21-5.81,4.4-9.02,2.63Zm6.24-11.39c-3.08-1.68-6.94-.55-8.62,2.52-1.68,3.07-.55,6.93,2.52,8.62,3.07,1.68,6.94,.55,8.62-2.52,1.68-3.07,.55-6.94-2.52-8.62Z"/><path class="cls-21" d="M85.58,44.11c.82-1.46,1.98-1.43,3.12-.84l.49-.88,.97,.54-.49,.88c.7,.43,1.18,.85,1.6,1.29l-.72,1.3c-.59-.4-1.66-1.05-2.16-1.33-.59-.34-.91-.45-1.22,.12l-.14,.25c-.25,.44-.16,.72,.38,1.02l.82,.45c1.52,.84,1.15,2.26,.69,3.08l-.23,.43c-.97,1.73-2.22,1.56-3.23,1l-.47,.84-.97-.54,.47-.85c-.82-.49-1.07-.73-1.62-1.31l.72-1.3c.39,.26,1.36,.88,2.31,1.41,.43,.24,.84,.33,1.08-.11l.16-.29c.2-.37,.21-.65-.29-.93l-.79-.44c-1.83-1.01-1.14-2.6-.83-3.16l.35-.63Z"/></g><g class="cls-19"><path class="cls-21" d="M89.5,38.22l-9.32,2.72c-.51,.55-.95,1.16-1.33,1.84l12.76-3.72c-.68-.37-1.39-.65-2.11-.84Z"/><path class="cls-21" d="M94.22,41.16l-16.44,4.8c-.25,1.73-.01,3.48,.66,5.06l17.94-5.25c-.28-1.69-1.02-3.3-2.17-4.62Z"/></g></g><g><g><g><path class="cls-14" d="M76.91,35.94c-3.39,6.19-1.12,13.97,5.07,17.36l12.29-22.44c-6.2-3.4-13.97-1.13-17.36,5.07Z"/><path class="cls-14" d="M99.34,48.23c-.64,1.17-1.44,2.2-2.36,3.08-1.32,1.27-2.88,2.22-4.56,2.82-2.6,.93-5.49,1.01-8.22,.13-.76-.24-1.51-.56-2.23-.96l12.29-22.44c.25,.14,.5,.28,.74,.44,5.63,3.59,7.59,10.98,4.33,16.93Z"/></g><path class="cls-21" d="M92.09,29.68c-6.2-3.39-13.97-1.12-17.36,5.07-3.4,6.19-1.13,13.97,5.07,17.36,6.2,3.4,13.97,1.12,17.36-5.07,3.39-6.19,1.12-13.97-5.07-17.36Z"/><g><path class="cls-14" d="M76.62,35.78c-2.82,5.15-.94,11.62,4.22,14.44l10.22-18.66c-5.15-2.82-11.62-.93-14.44,4.22Z"/><path class="cls-10" d="M91.06,31.56l-10.22,18.66c5.16,2.83,11.62,.94,14.44-4.22,2.82-5.15,.93-11.62-4.22-14.44Z"/></g><path class="cls-21" d="M81.61,48.81c-4.36-2.39-5.97-7.89-3.58-12.25,2.39-4.37,7.89-5.97,12.25-3.58,4.36,2.39,5.97,7.89,3.58,12.25-2.39,4.37-7.89,5.98-12.25,3.58Zm8.48-15.48c-4.17-2.29-9.43-.75-11.71,3.42-2.29,4.17-.75,9.42,3.42,11.71,4.17,2.29,9.42,.75,11.71-3.42,2.28-4.17,.75-9.42-3.42-11.71Z"/><path class="cls-21" d="M83.88,36.52c1.11-1.98,2.69-1.94,4.24-1.15l.66-1.19,1.32,.73-.66,1.2c.95,.59,1.61,1.15,2.18,1.75l-.98,1.77c-.8-.54-2.26-1.43-2.94-1.81-.8-.45-1.23-.61-1.65,.16l-.19,.34c-.34,.6-.22,.98,.52,1.39l1.11,.62c2.06,1.14,1.56,3.06,.94,4.18l-.32,.58c-1.31,2.36-3.01,2.12-4.39,1.35l-.63,1.14-1.32-.73,.64-1.15c-1.12-.67-1.46-.99-2.21-1.78l.98-1.76c.53,.35,1.85,1.2,3.14,1.92,.59,.33,1.13,.45,1.47-.15l.22-.4c.27-.5,.29-.89-.4-1.26l-1.07-.59c-2.49-1.38-1.55-3.52-1.13-4.29l.48-.87Z"/></g><g class="cls-19"><path class="cls-21" d="M89.21,28.53l-12.66,3.7c-.68,.74-1.29,1.57-1.8,2.5l17.33-5.07c-.93-.5-1.88-.88-2.86-1.14Z"/><path class="cls-21" d="M95.62,32.52l-22.33,6.52c-.34,2.35-.02,4.73,.9,6.88l24.38-7.12c-.38-2.3-1.39-4.48-2.94-6.27Z"/></g></g><g><g><g><path class="cls-14" d="M24.46,98.74c2.59,4.51,8.34,6.07,12.86,3.48l-9.38-16.33c-4.51,2.59-6.06,8.34-3.48,12.85Z"/><path class="cls-14" d="M40.79,89.36c.49,.85,.83,1.75,1.03,2.66,.29,1.32,.29,2.66,.02,3.94-.41,1.99-1.47,3.83-3.07,5.21-.44,.38-.93,.73-1.46,1.03l-9.38-16.33c.19-.11,.37-.21,.56-.3,4.42-2.16,9.81-.55,12.3,3.77Z"/></g><path class="cls-21" d="M26.35,86.79c-4.51,2.59-6.06,8.34-3.47,12.85,2.59,4.51,8.34,6.06,12.85,3.47,4.51-2.59,6.07-8.35,3.48-12.85-2.59-4.51-8.35-6.06-12.86-3.47Z"/><g><path class="cls-14" d="M24.25,98.86c2.15,3.75,6.94,5.04,10.69,2.89l-7.8-13.58c-3.75,2.15-5.04,6.94-2.89,10.69Z"/><path class="cls-10" d="M27.14,88.17l7.8,13.58c3.75-2.15,5.05-6.94,2.89-10.69-2.15-3.75-6.94-5.04-10.69-2.89Z"/></g><path class="cls-21" d="M34.35,100.72c-3.18,1.83-7.25,.72-9.07-2.45-1.83-3.18-.73-7.25,2.45-9.07,3.17-1.82,7.24-.72,9.07,2.46,1.82,3.17,.72,7.24-2.45,9.07Zm-6.47-11.27c-3.04,1.74-4.09,5.63-2.35,8.67,1.74,3.04,5.63,4.09,8.67,2.35,3.03-1.75,4.09-5.63,2.34-8.67-1.74-3.03-5.63-4.09-8.67-2.34Z"/><path class="cls-21" d="M27.5,94.58c-.82-1.46-.19-2.44,.9-3.11l-.5-.87,.97-.55,.5,.88c.74-.37,1.34-.56,1.94-.7l.74,1.3c-.64,.29-1.76,.87-2.26,1.15-.59,.33-.86,.54-.54,1.1l.14,.25c.25,.44,.53,.51,1.07,.2l.82-.46c1.51-.86,2.52,.2,2.98,1.02l.24,.42c.98,1.73,.18,2.7-.83,3.28l.47,.83-.97,.55-.48-.84c-.85,.44-1.19,.53-1.96,.7l-.73-1.29c.42-.2,1.46-.7,2.41-1.24,.43-.24,.72-.54,.47-.98l-.17-.3c-.21-.36-.45-.52-.94-.23l-.79,.45c-1.82,1.03-2.81-.38-3.12-.94l-.36-.63Z"/></g><g class="cls-19"><path class="cls-21" d="M24.52,88.17l-2.53,9.37c.21,.72,.5,1.42,.88,2.09l3.47-12.83c-.67,.39-1.28,.84-1.81,1.36Z"/><path class="cls-21" d="M29.49,85.67l-4.47,16.53c1.34,1.12,2.96,1.83,4.66,2.08l4.88-18.05c-1.59-.64-3.35-.84-5.07-.56Z"/></g></g><g><path class="cls-16" d="M69.3,67.59h17.64c1.24,0,2.24,1.01,2.24,2.24v22.43c0,1.24-1.01,2.24-2.24,2.24h-17.65c-1.24,0-2.24-1-2.24-2.24v-22.43c0-1.24,1.01-2.24,2.24-2.24Z"/><path class="cls-7" d="M67.8,67.59h17.64c1.24,0,2.24,1.01,2.24,2.24v22.43c0,1.24-1.01,2.24-2.24,2.24h-17.64c-1.24,0-2.24-1-2.24-2.24v-22.43c0-1.24,1.01-2.24,2.24-2.24Z"/><polygon class="cls-12" points="87.05 59.96 86.16 59.01 84.94 60.3 83.73 59.01 82.51 60.3 81.29 59.01 80.08 60.3 78.86 59.01 77.64 60.3 76.69 59.29 76.43 59.01 75.21 60.3 73.99 59.01 72.78 60.3 71.56 59.01 70.35 60.3 69.13 59.01 67.91 60.3 66.9 59.23 66.9 81.83 67.91 82.9 69.13 81.61 70.35 82.9 71.56 81.61 72.78 82.9 73.99 81.61 75.21 82.9 76.43 81.61 76.69 81.88 77.65 82.9 78.86 81.61 80.08 82.9 81.29 81.6 82.51 82.9 83.73 81.6 84.95 82.89 86.16 81.6 87.06 82.55 87.05 59.96"/><polygon class="cls-25" points="86.35 59.96 85.45 59.01 84.23 60.3 83.02 59.01 81.8 60.3 80.59 59.01 79.37 60.3 78.15 59.01 76.94 60.3 75.98 59.29 75.72 59.01 74.51 60.3 73.29 59.01 72.07 60.3 70.86 59.01 69.64 60.3 68.42 59.01 67.21 60.3 66.19 59.23 66.2 81.83 67.21 82.9 68.42 81.61 69.64 82.9 70.86 81.61 72.07 82.9 73.29 81.61 74.51 82.9 75.73 81.61 75.99 81.88 76.94 82.9 78.16 81.61 79.37 82.9 80.59 81.6 81.81 82.9 83.02 81.6 84.24 82.89 85.45 81.6 86.35 82.55 86.35 59.96"/><rect class="cls-22" x="80.71" y="61.78" width="4.21" height="1.94"/><rect class="cls-22" x="80.58" y="65.58" width="4.21" height="1.93"/><path class="cls-7" d="M69.34,70.82c-1.42,0-2.58,1.15-2.58,2.58v27.48c0,1.42,1.15,2.58,2.58,2.58h10.14v-32.64h-10.14Z"/><path class="cls-7" d="M89.62,70.82h-10.14v32.64h10.14c1.43,0,2.58-1.15,2.58-2.58v-27.48c0-1.42-1.15-2.58-2.58-2.58Z"/><g><g><rect class="cls-22" x="67.02" y="61.79" width="8.83" height="1.94"/><rect class="cls-22" x="75.85" y="61.78" width="3.32" height="1.94"/><rect class="cls-22" x="75.85" y="65.59" width="3.32" height="1.93"/><rect class="cls-22" x="67.02" y="65.59" width="8.83" height="1.93"/><rect class="cls-22" x="75.85" y="69.39" width="3.32" height="1.94"/><rect class="cls-22" x="67.02" y="69.39" width="8.83" height="1.93"/></g><rect class="cls-22" x="80.58" y="69.38" width="4.21" height="1.93"/></g><rect class="cls-22" x="76.2" y="76.69" width="8.59" height="3.18"/><path class="cls-13" d="M66,70.82c-1.43,0-2.58,1.15-2.58,2.58v27.48c0,1.42,1.15,2.58,2.58,2.58h10.14v-32.64h-10.14Z"/><path class="cls-13" d="M86.28,70.82h-10.14v32.64h10.14c1.42,0,2.58-1.15,2.58-2.58v-27.48c0-1.42-1.16-2.58-2.58-2.58Z"/><g><g><path class="cls-12" d="M70.97,84.25h-4.2c-.5,0-.89,.4-.89,.89v2.23c0,.49,.4,.89,.89,.89h4.2c.49,0,.89-.4,.89-.89v-2.23c0-.5-.4-.89-.89-.89Z"/><path class="cls-12" d="M70.97,89.92h-4.2c-.5,0-.89,.4-.89,.89v2.23c0,.49,.4,.89,.89,.89h4.2c.49,0,.89-.4,.89-.89v-2.23c0-.49-.4-.89-.89-.89Z"/><path class="cls-12" d="M70.95,95.46h-4.2c-.49,0-.89,.4-.89,.89v2.23c0,.49,.4,.89,.89,.89h4.2c.5,0,.89-.4,.89-.89v-2.23c0-.49-.4-.89-.89-.89Z"/><path class="cls-12" d="M78.26,84.23h-4.2c-.5,0-.89,.4-.89,.89v2.23c0,.49,.4,.89,.89,.89h4.2c.49,0,.89-.4,.89-.89v-2.23c0-.49-.4-.89-.89-.89Z"/><path class="cls-12" d="M78.26,89.9h-4.2c-.5,0-.89,.4-.89,.89v2.23c0,.49,.4,.89,.89,.89h4.2c.49,0,.89-.4,.89-.89v-2.23c0-.49-.4-.89-.89-.89Z"/><path class="cls-12" d="M78.26,95.46h-4.2c-.5,0-.89,.4-.89,.89v2.23c0,.49,.4,.89,.89,.89h4.2c.49,0,.89-.4,.89-.89v-2.23c0-.49-.4-.89-.89-.89Z"/><path class="cls-12" d="M85.58,84.23h-4.2c-.5,0-.89,.4-.89,.89v2.23c0,.49,.4,.89,.89,.89h4.2c.49,0,.89-.4,.89-.89v-2.23c0-.49-.4-.89-.89-.89Z"/><path class="cls-12" d="M85.58,89.9h-4.2c-.5,0-.89,.4-.89,.89v2.23c0,.49,.4,.89,.89,.89h4.2c.49,0,.89-.4,.89-.89v-2.23c0-.49-.4-.89-.89-.89Z"/><path class="cls-12" d="M85.58,95.46h-4.2c-.5,0-.89,.4-.89,.89v2.23c0,.49,.4,.89,.89,.89h4.2c.49,0,.89-.4,.89-.89v-2.23c0-.49-.4-.89-.89-.89Z"/></g><g><path class="cls-3" d="M70.35,84.25h-4.2c-.5,0-.89,.4-.89,.89v2.23c0,.49,.4,.89,.89,.89h4.2c.49,0,.89-.4,.89-.89v-2.23c0-.5-.4-.89-.89-.89Z"/><path class="cls-3" d="M70.35,89.92h-4.2c-.5,0-.89,.4-.89,.89v2.23c0,.49,.4,.89,.89,.89h4.2c.49,0,.89-.4,.89-.89v-2.23c0-.49-.4-.89-.89-.89Z"/><path class="cls-3" d="M70.32,95.46h-4.2c-.49,0-.89,.4-.89,.89v2.23c0,.49,.4,.89,.89,.89h4.2c.49,0,.89-.4,.89-.89v-2.23c0-.49-.4-.89-.89-.89Z"/><path class="cls-3" d="M77.64,84.23h-4.2c-.49,0-.89,.4-.89,.89v2.23c0,.49,.4,.89,.89,.89h4.2c.49,0,.89-.4,.89-.89v-2.23c0-.49-.4-.89-.89-.89Z"/><path class="cls-3" d="M77.64,89.9h-4.2c-.49,0-.89,.4-.89,.89v2.23c0,.49,.4,.89,.89,.89h4.2c.49,0,.89-.4,.89-.89v-2.23c0-.49-.4-.89-.89-.89Z"/><path class="cls-3" d="M77.64,95.46h-4.2c-.49,0-.89,.4-.89,.89v2.23c0,.49,.4,.89,.89,.89h4.2c.49,0,.89-.4,.89-.89v-2.23c0-.49-.4-.89-.89-.89Z"/><path class="cls-3" d="M84.95,84.23h-4.2c-.5,0-.89,.4-.89,.89v2.23c0,.49,.4,.89,.89,.89h4.2c.49,0,.89-.4,.89-.89v-2.23c0-.49-.4-.89-.89-.89Z"/><path class="cls-3" d="M84.95,89.9h-4.2c-.5,0-.89,.4-.89,.89v2.23c0,.49,.4,.89,.89,.89h4.2c.49,0,.89-.4,.89-.89v-2.23c0-.49-.4-.89-.89-.89Z"/><path class="cls-3" d="M84.95,95.46h-4.2c-.5,0-.89,.4-.89,.89v2.23c0,.49,.4,.89,.89,.89h4.2c.49,0,.89-.4,.89-.89v-2.23c0-.49-.4-.89-.89-.89Z"/></g></g><g><path class="cls-22" d="M67.22,73.23h18c1.17,0,2.13,.95,2.13,2.13v4.14c0,1.17-.95,2.13-2.13,2.13h-18c-1.17,0-2.13-.95-2.13-2.13v-4.14c0-1.17,.95-2.13,2.13-2.13Z"/><g><path class="cls-3" d="M74.9,76.6l.8-.49h.98v4.39h-.99v-3.44l-.78,.17v-.63Z"/><path class="cls-3" d="M77.11,76.26c.53-.19,1.25-.18,1.96-.17,.66,.01,1.11,.41,1.11,1.08v.28c0,.44-.14,.74-.48,.86,.35,.13,.48,.45,.48,.91v.22c0,.71-.42,1.1-1.15,1.1-.69,0-1.35,.02-1.88-.17v-.73h1.44c.43,0,.6-.02,.6-.35v-.13c0-.32-.2-.37-.57-.39l-1.1-.04v-.8l1.1-.06c.41-.02,.58-.07,.58-.37v-.14c0-.33-.27-.37-.58-.37h-1.51v-.73Z"/><path class="cls-3" d="M80.64,76.9c0-.51,.22-.8,.82-.8h.61c.59,0,.8,.29,.8,.8v.71c0,.51-.21,.8-.82,.8h-.61c-.59,0-.81-.29-.81-.8v-.71Zm.92,.84h.38c.24,0,.27-.1,.27-.27v-.44c0-.22-.07-.27-.26-.27h-.38c-.19,0-.27,.05-.27,.27v.44c0,.17,.04,.27,.26,.27Zm2.82-1.64h.66l-2.67,4.39h-.7l2.71-4.39Zm-.52,2.87c0-.51,.21-.8,.82-.8h.61c.59,0,.81,.29,.81,.8v.71c0,.51-.21,.79-.82,.79h-.61c-.59,0-.8-.29-.8-.79v-.71Zm.92,.84h.37c.24,0,.28-.1,.28-.27v-.44c0-.22-.08-.27-.26-.27h-.38c-.18,0-.27,.05-.27,.27v.44c0,.17,.04,.27,.26,.27Z"/></g><path class="cls-15" d="M87.04,74.24c-.39-.37-.9-.6-1.48-.6h-18c-1.17,0-2.13,.96-2.13,2.13v4.14c0,.41,.11,.8,.31,1.12-.39-.39-.65-.93-.65-1.52v-4.14c0-1.18,.96-2.13,2.13-2.13h18c.77,0,1.43,.4,1.81,1.01Z"/><g class="cls-20"><path class="cls-4" d="M71.06,73.23l-5.92,6.63c.09,.53,.37,.98,.77,1.3l7.22-7.93h-2.07Z"/><polygon class="cls-4" points="75.56 73.23 67.88 81.63 76.28 81.63 83.97 73.23 75.56 73.23"/></g></g></g><g><g id="_"><g><path class="cls-17" d="M104.78,58.68l-.46,.35h0l-1.93,1.44-.73,.54c-.14,.1-.39,0-.55-.22l-.17-.24-.37-.53-.74-1.06-.19-.28-.08-.12h0l-2.12-3.02-.18-.25-1.65-2.36-.27-.38c-.12-.17-.12-.38,0-.47l.53-.39,1.93-1.44,.22-.16c.12-.09,.32-.03,.45,.13l.43,.55,.78,.99,1.05,1.33,1.64,2.06,.65,.83,.3,.38,.8,1.01,.4,.5,.19,.23c.17,.22,.2,.48,.06,.59Z"/><path class="cls-5" d="M106.62,60.52l-.77,.57-1.94,1.44-1.03,.77c-.13,.1-.38-.01-.54-.25l-.22-.29-1.49-2-.07-.09c-.17-.23-.21-.5-.08-.59l.08-.06,.96-.71,1.93-1.44,.68-.5,.09-.06c.13-.1,.37,.02,.54,.25l.07,.1,.64,.86,1.06,1.43c.17,.23,.21,.5,.08,.59Z"/><path class="cls-7" d="M120.03,77.12l-1.33,1-1.93,1.45-1.66,1.23c-.22,.16-.71-.15-1.1-.69l-12.26-16.98-.95-1.38c-.28-.4-.37-.84-.18-.98h.02l.31-.23,.97-.72,.05-.03,1.89-1.41,.04-.03,.65-.5,.31-.22h.01c.19-.15,.59,.05,.88,.43,.01,0,.01,.02,.01,.02l13.96,17.8c.41,.51,.56,1.09,.32,1.25Z"/><polygon class="cls-5" points="103.34 56.35 102.69 56.83 100.76 58.27 99.83 58.96 99.64 58.69 99.56 58.57 99.55 58.57 97.44 55.55 97.26 55.29 97.16 55.15 97.72 54.74 97.99 54.54 99.92 53.1 100.45 52.7 100.75 53.08 102.38 55.14 103.04 55.97 103.34 56.35"/><path class="cls-7" d="M103.51,55.62l-.47,.35-.63,.47-1.93,1.44-.33,.25-.59,.44-.47,.35c-.15,.11-.4,.03-.56-.18l-1.62-2.18c-.16-.21-.17-.48-.02-.59l.56-.41h0l.83-.62,1.94-1.44,.54-.4h0l.55-.41c.15-.11,.41-.03,.57,.18l1.05,1.41,.58,.77c.16,.21,.16,.48,.01,.59Z"/><polygon class="cls-13" points="118.69 78.12 116.76 79.56 101.95 59.79 103.84 58.39 103.89 58.36 118.69 78.12"/></g><g><path class="cls-3" d="M101.35,43.42c-.17,.31-.34,.61-.53,.91-.06,.1-.13,.2-.19,.3-.08,.11-.15,.23-.23,.34h0c-.1,.15-.21,.3-.31,.44-.08,.1-.16,.21-.23,.31-.06,.08-.12,.15-.17,.22-.03,.04-.07,.08-.1,.12,0,0,0,0-.01,0-.02,.03-.05,.06-.07,.09-.05,.06-.1,.12-.15,.18-.22,.26-.44,.5-.67,.74-.04,.04-.08,.08-.12,.12-.08,.09-.16,.17-.24,.25h0c-.24,.24-.48,.46-.74,.68-.04,.03-.08,.07-.13,.11-.09,.08-.17,.15-.26,.22-.26,.21-.53,.42-.79,.61-.02,.01-.04,.03-.05,.04-.03,.02-.06,.04-.09,.06-.06,.04-.12,.09-.19,.13-.03,.02-.06,.05-.1,.07h0c-.08,.05-.15,.1-.22,.15-.21,.14-.42,.27-.63,.4-.05,.03-.1,.06-.15,.09-.04,.02-.07,.04-.11,.06-.06,.03-.13,.07-.2,.11-.31,.17-.61,.33-.93,.48-.05,.03-.11,.06-.16,.08-.11,.05-.22,.1-.33,.15-.33,.15-.66,.28-1,.4-.06,.02-.12,.04-.18,.07-.08,.02-.15,.05-.23,.08h0s-.08,.03-.13,.04c-.35,.12-.71,.22-1.08,.32-.06,.02-.13,.03-.19,.05h0c-.07,.02-.13,.04-.21,.05-.02,0-.03,0-.05,0h0s-.09,.02-.14,.03c-.35,.08-.7,.14-1.05,.19-.02,0-.05,0-.07,.01-.23,.03-.47,.06-.7,.09-.47,.05-.93,.08-1.41,.09-.32,0-.64,0-.97,0,0,0-.02,0-.02,0-.05,0-.11,0-.16,0-.2,0-.4-.02-.6-.03-.18-.02-.36-.03-.53-.05-.07,0-.14-.02-.21-.03-.22-.03-.44-.06-.66-.09-.2-.03-.4-.07-.6-.11-.07-.01-.13-.03-.2-.04h0c-.09-.02-.18-.04-.27-.06-.15-.04-.3-.07-.45-.11,0,0-.01,0-.01,0-.02,0-.04,0-.05-.02-.5-.12-.98-.28-1.46-.45-.07-.03-.13-.05-.2-.08-.09-.03-.18-.07-.26-.1-.07-.02-.14-.05-.2-.08-.04-.02-.08-.03-.12-.05-.12-.05-.24-.1-.36-.15-.11-.05-.21-.1-.31-.15h-.02c-.11-.06-.23-.12-.34-.17-.38-.19-.75-.39-1.12-.61-.06-.04-.13-.07-.19-.11-.07-.04-.13-.08-.2-.12-.23-.15-.46-.3-.68-.46-.07-.05-.13-.09-.2-.14-.01,0-.03-.02-.04-.03-.36-.27-.72-.55-1.06-.84-.04-.03-.08-.06-.12-.1-.04-.04-.09-.08-.13-.11h0s-.04-.03-.06-.05c-.2-.18-.4-.36-.58-.55-.48-.47-.94-.98-1.35-1.51-.09-.11-.18-.23-.27-.34-.03-.04-.06-.07-.08-.11-.05-.06-.09-.13-.14-.19-.24-.34-.48-.69-.7-1.04,0,0-.01-.01-.01-.02-.02-.04-.05-.08-.08-.13-.11-.18-.22-.37-.32-.56-.14-.24-.27-.49-.39-.74-.16-.33-.31-.67-.45-1.01-.12-.29-.24-.59-.34-.9-.01-.04-.02-.07-.04-.1-.02-.08-.05-.15-.07-.23-.05-.14-.08-.27-.13-.41,0,0,0-.01,0-.02,0,0,0-.01,0-.02h0c-.02-.06-.04-.12-.05-.19-.21-.73-.36-1.49-.47-2.26,0-.03,0-.06-.01-.08-.05-.34-.08-.68-.1-1.02h0c-.04-.53-.05-1.06-.04-1.6,0-.06,0-.12,0-.18,0-.08,0-.16,.01-.25,0-.05,0-.1,0-.16,0-.06,0-.12,0-.18,.01-.15,.02-.32,.04-.47,.01-.15,.03-.31,.05-.46,0-.01,0-.02,0-.04,0-.02,0-.05,0-.07,.19-1.54,.6-3.01,1.17-4.38,.14-.34,.3-.68,.47-1.02,.11-.24,.24-.47,.37-.7,.15-.28,.32-.55,.48-.82,.03-.05,.07-.11,.1-.15,.13-.2,.26-.39,.4-.59,.04-.05,.07-.1,.11-.15,.14-.2,.29-.4,.45-.6,.09-.11,.19-.23,.28-.35h0s.06-.07,.09-.1c2.71-3.18,6.56-5.35,10.89-5.88h0c.86-.11,1.74-.14,2.63-.11,3.19,.1,6.15,1.08,8.65,2.68,1.35,.87,2.57,1.93,3.62,3.13,.72,.82,1.35,1.71,1.9,2.65,.04,.07,.08,.14,.12,.21,.04,.07,.07,.14,.11,.2,.05,.08,.09,.16,.13,.25,.03,.05,.06,.11,.09,.16,.27,.53,.51,1.08,.72,1.63,.03,.07,.05,.14,.08,.21,.05,.13,.1,.27,.14,.41,.02,.07,.05,.14,.07,.21,.15,.43,.27,.87,.37,1.32,.07,.28,.13,.55,.18,.83,.05,.26,.09,.52,.13,.78h0c.1,.76,.16,1.53,.16,2.32,0,.19,0,.38-.01,.57,0,.19-.01,.39-.03,.58h0c-.08,1.15-.26,2.27-.56,3.35h0s0,.03-.01,.04c-.01,.05-.03,.09-.04,.14-.06,.2-.12,.4-.18,.59-.09,.29-.19,.57-.3,.84h0c-.07,.18-.14,.35-.21,.53-.21,.5-.45,1-.72,1.48Zm3.4-.45c.23-.56,.44-1.13,.62-1.71,.21-.69,.39-1.38,.53-2.1,.09-.48,.17-.96,.23-1.44,.03-.22,.05-.44,.07-.67,.02-.17,.03-.35,.04-.52,.01-.19,.02-.39,.03-.58,.01-.42,.01-.84,0-1.25-.05-1.66-.31-3.27-.74-4.81-.04-.15-.08-.29-.13-.44-.13-.42-.27-.83-.43-1.24-.38-.99-.84-1.95-1.36-2.86-1.51-2.61-3.61-4.85-6.11-6.54-1.25-.84-2.6-1.55-4.04-2.1-2.01-.76-4.17-1.21-6.43-1.28-3.03-.1-5.92,.49-8.53,1.62-1.61,.7-3.1,1.59-4.45,2.66-1.8,1.42-3.35,3.15-4.57,5.11-.71,1.14-1.3,2.36-1.78,3.65,0,.03-.02,.05-.03,.08h0c-.15,.42-.29,.85-.42,1.29-.09,.33-.18,.65-.26,.98-.29,1.24-.46,2.53-.5,3.85-.03,.9,0,1.79,.09,2.66,.03,.27,.06,.54,.1,.8,.04,.29,.09,.59,.14,.88,.06,.31,.13,.62,.2,.92,.18,.74,.4,1.47,.66,2.18,.1,.27,.2,.55,.31,.82,.27,.66,.58,1.3,.93,1.92,.13,.25,.27,.48,.41,.72,.35,.59,.74,1.16,1.15,1.7,.04,.06,.08,.11,.13,.17,.12,.16,.24,.32,.37,.47,.43,.53,.88,1.03,1.36,1.5,.15,.15,.31,.3,.47,.44h0s.08,.07,.11,.11c.5,.46,1.03,.89,1.57,1.3,.22,.17,.44,.32,.66,.47,.35,.24,.7,.46,1.06,.68,.16,.09,.31,.18,.48,.27,.08,.05,.17,.09,.25,.14,.19,.1,.37,.19,.56,.29,.07,.03,.14,.06,.21,.1,.14,.07,.29,.14,.44,.21,.06,.03,.13,.06,.19,.08,.46,.2,.93,.39,1.41,.56,0,0,.01,0,.02,0,.07,.02,.14,.05,.21,.07,.07,.03,.14,.05,.21,.07,.15,.05,.29,.09,.43,.14,.03,0,.06,.02,.08,.03,.47,.14,.95,.26,1.43,.36,.08,.02,.15,.04,.23,.05,.03,0,.07,.02,.1,.02,.14,.03,.29,.06,.44,.08,.02,0,.04,0,.07,.01,.34,.06,.67,.11,1.01,.15,.03,0,.07,0,.11,.01,.08,.01,.17,.02,.25,.03,.09,.01,.19,.02,.28,.03,.32,.03,.64,.05,.96,.06,.05,0,.11,0,.16,0,.11,0,.21,0,.31,.01,.24,0,.47,0,.71,0,.01,0,.03,0,.04,0,.4-.01,.8-.03,1.19-.06,.16-.01,.32-.03,.47-.04,.11,0,.21-.02,.32-.03,.95-.11,1.88-.29,2.78-.54,.59-.16,1.17-.35,1.74-.56,.62-.23,1.23-.49,1.82-.78,.17-.08,.34-.17,.51-.26,.29-.15,.57-.3,.84-.46,.7-.41,1.36-.86,2-1.35,.16-.12,.31-.24,.46-.36,.73-.6,1.42-1.24,2.06-1.92,1.58-1.7,2.87-3.69,3.78-5.87Z"/><path class="cls-9" d="M102.06,42.81c.88-2,1.4-4.2,1.47-6.52,.05-1.71-.14-3.38-.54-4.96-.16-.61-.35-1.22-.57-1.8-.03-.09-.07-.18-.1-.27-.22-.57-.48-1.13-.76-1.67-.03-.06-.06-.11-.09-.16-1.39-2.61-3.43-4.82-5.89-6.44-2.61-1.71-5.7-2.74-9.04-2.85-1.14-.04-2.25,.03-3.33,.21h0c-4.58,.73-8.6,3.23-11.28,6.81-.22,.29-.43,.59-.63,.89-.09,.13-.18,.27-.26,.41-.01,.02-.02,.04-.03,.05-.06,.09-.11,.18-.16,.28-.18,.3-.35,.61-.51,.93-.07,.14-.14,.28-.21,.41h0c-.03,.07-.06,.14-.09,.21h0c-.87,1.87-1.41,3.92-1.57,6.08-.02,.19-.03,.38-.03,.57,0,.06,0,.12,0,.19,0,.04,0,.07,0,.11-.01,.35,0,.7,0,1.05h0c.03,.9,.13,1.79,.29,2.66,.06,.32,.13,.65,.21,.96,.85,3.44,2.71,6.5,5.25,8.82h0c1.2,1.09,2.54,2.02,4.01,2.74,.14,.07,.27,.14,.41,.2,.52,.24,1.05,.46,1.6,.65,.64,.23,1.3,.41,1.97,.56,.58,.13,1.17,.23,1.76,.3,.43,.05,.87,.09,1.31,.1,.06,0,.12,0,.18,0,.35,.01,.69,.01,1.04,0,5.87-.15,11.07-3.21,14.15-7.83,.19-.29,.38-.59,.56-.89,.05-.08,.1-.17,.15-.25,.1-.18,.19-.35,.29-.53h0c.17-.33,.33-.66,.48-1Zm-1.5-15.85h0c.05,.08,.09,.16,.14,.24,.18,.32,.35,.65,.51,.98,.54,1.13,.96,2.34,1.24,3.59,.29,1.31,.42,2.67,.37,4.07-.05,1.64-.34,3.21-.83,4.68-.11,.33-.23,.65-.36,.96h0c-.03,.09-.07,.19-.11,.28h0c-.06,.14-.12,.27-.18,.4-.15,.32-.31,.64-.48,.95-1.12,2.08-2.68,3.89-4.56,5.31-.28,.21-.57,.42-.86,.61-2.75,1.82-6.06,2.83-9.61,2.72-.14,0-.29-.01-.43-.02-1.01-.06-1.99-.21-2.94-.44-.63-.15-1.25-.34-1.85-.57-.34-.13-.67-.26-1-.41-.15-.06-.3-.14-.44-.21-.42-.21-.83-.43-1.23-.67-.42-.25-.83-.52-1.22-.8-.42-.31-.83-.63-1.22-.97h0c-.09-.08-.18-.16-.26-.23-.35-.32-.67-.65-1-1-.39-.43-.77-.88-1.11-1.35-.6-.81-1.12-1.67-1.57-2.58-.13-.26-.25-.53-.36-.8-.18-.42-.34-.84-.48-1.28-.17-.52-.32-1.06-.44-1.6-.12-.54-.21-1.1-.27-1.65-.09-.79-.12-1.59-.09-2.4,0-.28,.02-.55,.05-.82,.01-.16,.02-.32,.04-.48,.01-.1,.02-.2,.04-.3,.05-.34,.1-.68,.17-1.02,.41-2.09,1.21-4.04,2.32-5.76,.16-.25,.33-.5,.51-.73,.03-.05,.07-.1,.11-.14,.19-.26,.39-.5,.59-.75,0,0,.01-.02,.02-.03,.27-.32,.55-.63,.84-.93,3.11-3.18,7.5-5.1,12.3-4.94,.14,0,.28,.01,.42,.01h0c5.67,.33,10.53,3.5,13.23,8.08Z"/></g></g><path id="_-2" class="cls-6" d="M71.23,39.59c-.95-3.28-.89-6.84,.44-10.05,1.41-3.39,3.38-6.44,6.67-8.19,1.49-.79,3.12-1.33,4.8-1.59,.81-.12,1.63-.18,2.45-.17,.62,0,1.75,.38,2.3,.23-2.88,.83-5.72,2.11-7.84,4.24-2.69,2.68-3.87,6.65-3.41,10.39,.23,1.85,.86,3.66,1.9,5.21,1.16,1.71,3.08,2.58,4.23,4.22,.76,1.07,1.35,2.3,1.27,3.64-.24,3.95-4.83,2.29-6.82,.82-2.9-2.12-5.01-5.28-6-8.74Z"/></g></g></g></g></g></g></svg>