<?xml version="1.0" encoding="UTF-8"?><svg xmlns="http://www.w3.org/2000/svg" viewBox="0 0 121.53 120.23"><defs><style>.cls-1{fill:#153152;}.cls-2{isolation:isolate;}.cls-3{fill:#f59207;}.cls-4{fill:#f59407;}.cls-5{fill:#ffbf00;}.cls-6{fill:#193a61;}.cls-7{fill:#87412e;}.cls-8{fill:#ff8d6e;}.cls-9{fill:#eda73f;}.cls-10{fill:gray;mix-blend-mode:multiply;opacity:.7;}.cls-11{mix-blend-mode:screen;opacity:.3;}.cls-12{fill:#ffce3b;}.cls-13{fill:#f59905;}.cls-14{fill:#e85f3b;}.cls-15{fill:#ff7e5c;}.cls-16{fill:#fefefe;}</style></defs><g class="cls-2"><g id="Layer_2"><g id="layer"><g><g><path class="cls-10" d="M105.21,60.7c0-18.43-13.73-33.93-32.39-38.54,2.96-4.18,3.09-9.89,.06-14.24-.16-.23-.33-.45-.5-.67-.25-.31-.52-.61-.79-.89-.22-.34-.46-.67-.72-.99-.3-.38-.63-.73-.97-1.07-.09-.09-.18-.16-.27-.25-.26-.24-.52-.47-.8-.69-.04-.03-.08-.07-.12-.11h-.02C65.07,.49,60.18-.06,56.03,1.85h-.03c-.11,.05-.21,.1-.32,.16-.07,.03-.14,.07-.21,.1-.31,.16-.62,.34-.92,.53-.06,.04-.12,.08-.17,.11-.31,.2-.62,.42-.91,.66h-.02c-1.18,.96-2.14,2.09-2.87,3.32h-.02c-.08,.13-.14,.26-.21,.39-.03,.05-.06,.1-.09,.16-.18,.33-.34,.67-.49,1.01h0c-.14,.34-.25,.67-.36,1.01-.03,.09-.06,.18-.08,.27-.09,.29-.16,.58-.23,.88-.01,.06-.03,.11-.04,.17-.07,.35-.13,.7-.17,1.06,0,.08-.01,.16-.02,.24-.03,.29-.05,.57-.05,.86,0,.09,0,.19,0,.28,0,.06,0,.12,0,.18h.01c.02,2.69,.9,5.39,2.71,7.65,.25,.32,.52,.61,.79,.9-7.48,1.63-14.45,5.07-19.79,9.07-4.96-6.02-15.66-7.84-22.21-2.48l12.08,13.94c-3.7,6.47-6.43,13.62-14.47,18.41H.71v16.34H10.16s3.57,8.22,14.9,14.95c2.02,5.57,4,13.55,4,17.16h10.65s.85-6.28,3.97-10.19c5.12,1.05,10.95,1.67,17.6,1.67,5.48,0,10.72-.92,15.56-2.59,1.24,3.82,2.14,8.16,2.14,11.11h10.65s-.65-10.4,2.39-19.94c8.14-7.25,13.19-17.35,13.19-28.52Z"/><g><path class="cls-15" d="M60.57,20.05c-14.31,0-28.35,7.99-35.04,15.84-6.4,7.52-7.83,17.84-18.35,24.1H0v16.34H9.45s10.25,23.59,51.12,23.59c24.26,0,43.93-17.88,43.93-39.94S84.83,20.05,60.57,20.05Z"/><path class="cls-14" d="M83.63,32.74c-.09,.14-.21,.27-.33,.38-.51,.43-1.25,.51-1.87,.16-5.69-3.44-12.35-5.24-19.25-5.24-6.15,0-12.96,1.98-19.15,5.59-.26,.16-.53,.22-.8,.22-.38,0-.75-.14-1.04-.4-.14-.1-.26-.24-.35-.4-.43-.77-.17-1.74,.58-2.19,6.69-3.88,14.06-6.02,20.77-6.02,7.47,0,14.71,1.96,20.89,5.69,.77,.46,1.01,1.44,.56,2.2Z"/><path class="cls-15" d="M9.58,27.64c8.79-7.19,25.03-1.46,24.89,9.98l-6.79,10.92L9.58,27.64Z"/><path class="cls-8" d="M22.03,86.19c2.45,3.6,6.32,17.2,6.32,22.25h10.65s1.42-10.54,7.36-12.81c5.95-2.27-24.33-9.45-24.33-9.45Z"/><path class="cls-8" d="M73.17,90.61c2.45,3.6,5.11,12.78,5.11,17.84h10.65s-1.11-17.46,6.17-27.89c3.64-5.22-21.93,10.05-21.93,10.05Z"/><path class="cls-7" d="M23.24,59.24c0,1.57-1.09,2.84-2.44,2.84s-2.44-1.27-2.44-2.84,1.09-2.85,2.44-2.85,2.44,1.27,2.44,2.85Z"/><path class="cls-7" d="M83.29,33.12c-.51,.43-1.25,.51-1.87,.16-5.69-3.44-12.35-5.24-19.25-5.24-6.15,0-12.96,1.98-19.15,5.59-.26,.16-.53,.22-.8,.22-.38,0-.75-.14-1.04-.4,.07-.1,.15-.14,.22-.19,6.69-3.88,14.06-6.02,20.77-6.02,7.47,0,14.71,1.97,20.89,5.69,.08,.05,.16,.1,.23,.19Z"/><g><g><g><path class="cls-13" d="M54.23,4.6c-5.35,4.28-6.22,12.09-1.94,17.44l19.38-15.5c-4.28-5.35-12.09-6.22-17.44-1.94Z"/><path class="cls-13" d="M69.73,23.98c-1.02,.81-2.11,1.44-3.26,1.88-1.65,.64-3.4,.91-5.13,.82-2.67-.13-5.29-1.14-7.41-2.94-.59-.5-1.14-1.07-1.64-1.69l19.38-15.5c.17,.22,.34,.44,.5,.67,3.7,5.32,2.69,12.66-2.44,16.77Z"/></g><path class="cls-5" d="M70.17,4.65c-4.28-5.35-12.09-6.22-17.44-1.94-5.35,4.28-6.22,12.09-1.94,17.44,4.28,5.35,12.09,6.22,17.44,1.94,5.35-4.28,6.22-12.09,1.94-17.44Z"/><g><path class="cls-13" d="M54.03,4.35c-4.45,3.56-5.17,10.05-1.61,14.5l16.12-12.89c-3.56-4.45-10.06-5.17-14.51-1.61Z"/><path class="cls-3" d="M68.54,5.96l-16.12,12.89c3.56,4.45,10.05,5.18,14.51,1.62,4.45-3.56,5.17-10.06,1.61-14.51Z"/></g><path class="cls-5" d="M53.64,17.88c-3.02-3.77-2.4-9.29,1.37-12.31,3.77-3.02,9.29-2.4,12.31,1.37,3.01,3.77,2.4,9.29-1.37,12.31-3.77,3.02-9.3,2.4-12.31-1.37Zm13.37-10.69c-2.89-3.6-8.16-4.19-11.76-1.31-3.6,2.88-4.19,8.16-1.31,11.76,2.88,3.61,8.15,4.19,11.76,1.31,3.6-2.88,4.19-8.16,1.31-11.76Z"/><path class="cls-5" d="M60.26,7.72c1.73-1.36,3.13-.74,4.22,.56l1.04-.82,.91,1.15-1.04,.83c.63,.88,1,1.63,1.29,2.38l-1.54,1.22c-.52-.78-1.49-2.11-1.96-2.71-.55-.71-.88-1-1.54-.48l-.3,.24c-.52,.41-.56,.8-.05,1.43l.77,.97c1.42,1.79,.25,3.33-.72,4.09l-.51,.4c-2.05,1.63-3.48,.77-4.44-.42l-.99,.78-.91-1.15,1-.8c-.75-1.01-.93-1.43-1.31-2.41l1.53-1.21c.35,.51,1.21,1.76,2.09,2.88,.41,.52,.85,.83,1.37,.41l.35-.28c.43-.34,.59-.68,.11-1.27l-.74-.94c-1.71-2.16-.07-3.73,.59-4.25l.75-.6Z"/></g><g class="cls-11"><path class="cls-5" d="M68.01,2.55l-12.72-1.42c-.89,.41-1.74,.93-2.54,1.57l17.41,1.94c-.64-.8-1.36-1.49-2.14-2.09Z"/><path class="cls-5" d="M72.26,8.52l-22.43-2.5c-1.18,1.98-1.78,4.23-1.76,6.49l24.49,2.72c.51-2.2,.43-4.53-.29-6.72Z"/></g></g></g></g><g><path class="cls-10" d="M121.35,68.41c-1.05-12.75-10.64-21.69-23.47-21.69h-.17c-12.83,0-22.42,8.93-23.47,21.69-.52,6.25-.63,11.91,9.65,23.97,1.13,1.32,1.83,3.34,2.29,5.39h-2.03v3.25h1.18v3.31h-1.18v3.25h1.18v3.3h-1.18v3.26h1.37c.17,.21,.46,.43,.89,.67l8.51,4.75c.79,.44,1.84,.67,2.88,.67s2.09-.23,2.88-.67l8.51-4.75c.43-.24,.71-.47,.89-.67h1.37v-3.26h-1.18v-3.3h1.18v-3.25h-1.18v-3.31h1.18v-3.25h-2.03c.45-2.05,1.16-4.07,2.29-5.39,10.28-12.06,10.17-17.72,9.65-23.97Z"/><g><g><path class="cls-16" d="M96.89,45.83h-.08c-12.83,0-22.42,8.93-23.47,21.69-.52,6.25-.63,11.91,9.65,23.97,2.15,2.52,2.78,7.58,3.02,10.55,.13,1.62,7.96,2.68,10.89,2.89h0V45.83h0Z"/><path class="cls-16" d="M120.45,67.52c-1.05-12.75-10.64-21.69-23.47-21.69h-.08v59.1c2.93-.21,10.75-1.27,10.88-2.89,.24-2.98,.87-8.03,3.02-10.55,10.28-12.06,10.17-17.72,9.65-23.97Z"/></g><path class="cls-1" d="M96.9,96.88h-12.47v16.02h0c.02,.28,.38,.64,1.07,1.03l8.51,4.75c.79,.44,1.84,.67,2.88,.67s2.09-.23,2.88-.67l8.51-4.75c.69-.39,1.05-.75,1.08-1.03h0v-16.02h-12.47Z"/><g><g><g><path class="cls-9" d="M79.26,68.41c0,10.86,8.8,19.66,19.66,19.66V48.75c-10.86,0-19.66,8.8-19.66,19.67Z"/><path class="cls-9" d="M118.58,68.41c0,2.06-.32,4.04-.9,5.9-.84,2.68-2.24,5.11-4.07,7.16-2.82,3.17-6.65,5.42-10.98,6.25-1.2,.23-2.44,.35-3.72,.35V48.75c.45,0,.89,.02,1.33,.05,10.24,.68,18.34,9.2,18.34,19.62Z"/></g><path class="cls-12" d="M95.1,48.75c-10.86,0-19.66,8.8-19.66,19.67s8.8,19.66,19.66,19.66,19.66-8.8,19.66-19.66-8.81-19.67-19.66-19.67Z"/><g><path class="cls-9" d="M78.75,68.41c0,9.03,7.32,16.36,16.36,16.36V52.06c-9.03,0-16.36,7.32-16.36,16.36Z"/><path class="cls-4" d="M95.1,52.06v32.71c9.03,0,16.36-7.32,16.36-16.36s-7.32-16.36-16.36-16.36Z"/></g><path class="cls-12" d="M95.1,82.29c-7.65,0-13.88-6.23-13.88-13.88s6.22-13.88,13.88-13.88,13.87,6.23,13.87,13.88-6.22,13.88-13.87,13.88Zm0-27.14c-7.31,0-13.26,5.95-13.26,13.26s5.95,13.26,13.26,13.26,13.26-5.95,13.26-13.26-5.94-13.26-13.26-13.26Z"/><path class="cls-12" d="M89.09,64.05c.03-3.49,2.18-4.61,4.87-4.68v-2.1h2.34v2.13c1.71,.09,3.01,.37,4.22,.75v3.12c-1.49-.14-4.11-.26-5.31-.26-1.42-.02-2.11,.09-2.12,1.43v.6c0,1.06,.43,1.48,1.72,1.48h1.96c3.62,.03,4.37,2.99,4.36,4.95v1.02c-.03,4.15-2.5,5.08-4.93,5.07v2h-2.34v-2.04c-1.98-.07-2.69-.26-4.27-.76l.02-3.1c.97,.08,3.37,.25,5.64,.26,1.04,0,1.87-.23,1.87-1.29v-.71c0-.88-.26-1.4-1.46-1.41h-1.89c-4.37-.03-4.69-3.61-4.68-4.96v-1.51Z"/></g><g class="cls-11"><path class="cls-12" d="M90.36,49.33l-14.34,14.34c-.37,1.51-.57,3.08-.58,4.7l19.62-19.63c-1.62,0-3.19,.21-4.7,.58Z"/><path class="cls-12" d="M101.95,49.97l-25.29,25.29c1.27,3.42,3.47,6.39,6.28,8.61l27.61-27.61c-2.22-2.81-5.19-5.01-8.61-6.28Z"/></g></g><g><rect class="cls-6" x="83.25" y="96.88" width="27.3" height="3.25"/><rect class="cls-6" x="83.25" y="103.44" width="27.3" height="3.25"/><rect class="cls-6" x="83.25" y="109.99" width="27.3" height="3.26"/></g></g></g></g></g></g></g></svg>